# xmcd
#
# Track frame offsets:
# 150
# 14160
# 26470
# 39287
# 47702
# 58110
# 72169
# 82582
# 100247
# 114707
# 125605
#
# Disc length: 1830 seconds
#
#
# Revision: 3
# Processed by: cddbd v1.5.2PL0 Copyright (c) Steve Scherf et al.
# Submitted via: FreeRIP 2.951 
#
DISCID=8c07240b
DTITLE=Simon and Garfunkel - 21 Grandes Exitos CD1
DYEAR=2001
DGENRE=Folk
TTITLE0=The Sound Of Silence
TTITLE1=Homeward Bound
TTITLE2=I Am a Rock
TTITLE3=The 59th Street Bridge Song (Feelin' Groovy)
TTITLE4=A Hazy Shade Of Winter
TTITLE5=Scarborough Fair-Canticle
TTITLE6=At The Zoo
TTITLE7=Mrs. Robinson (From The Motion  Picture "The Graduate")
TTITLE8=Fakin' It
TTITLE9=For Emily, Whenever I May Find Her
TTITLE10=The Dangling Conversation
EXTD=Simon and Garfunkel\nColumbia: 2 - 495887 Año: 2001\nID3G: 80
EXTT0=
EXTT1=
EXTT2=
EXTT3=
EXTT4=
EXTT5=
EXTT6=
EXTT7=
EXTT8=
EXTT9=
EXTT10=
PLAYORDER=
